<svg width="17" height="16" viewBox="0 0 17 16" fill="none" xmlns="http://www.w3.org/2000/svg">
<path d="M0.259629 0.67097C0.11624 0.684595 0.0110455 0.81188 0.0246708 0.95527L0.292312 3.77186C0.654758 7.58615 4.04067 10.3844 7.85496 10.022V10.022C8.08382 10.0002 8.25172 9.79708 8.22997 9.56822L7.99174 7.06114C7.62117 3.16138 4.15939 0.300403 0.259629 0.67097V0.67097Z" fill="white"/>
<path d="M6.27492 15.5003C6.42276 15.5974 6.62133 15.5563 6.71844 15.4084L7.91164 13.592C9.89382 10.5745 9.05451 6.52142 6.03698 4.53923V4.53923C5.85593 4.4203 5.61275 4.47066 5.49382 4.65171L2.63497 9.0038C1.59452 10.5877 2.03507 12.7152 3.61898 13.7556L6.27492 15.5003Z" fill="white"/>
<path d="M16.241 0.67097C16.3844 0.684595 16.4896 0.81188 16.476 0.95527L16.2084 3.77186C15.8459 7.58615 12.46 10.3844 8.64571 10.022V10.022C8.41685 10.0002 8.24895 9.79708 8.2707 9.56822L8.50893 7.06114C8.8795 3.16138 12.3413 0.300403 16.241 0.67097V0.67097Z" fill="white"/>
<path d="M10.2258 15.5003C10.0779 15.5974 9.87934 15.5563 9.78223 15.4084L8.58903 13.592C6.60685 10.5745 7.44616 6.52142 10.4637 4.53923V4.53923C10.6447 4.4203 10.8879 4.47066 11.0069 4.65171L13.8657 9.0038C14.9062 10.5877 14.4656 12.7152 12.8817 13.7556L10.2258 15.5003Z" fill="white"/>
</svg>
