<svg width="800" height="800" viewBox="0 0 800 800" fill="none" xmlns="http://www.w3.org/2000/svg">
<g clip-path="url(#clip0_4_2)">
<path d="M777.753 525.788C746.924 514.179 725.482 504.871 713.45 497.774C691.626 485.679 677.224 461.809 670.279 426.118C664.524 396.465 668.379 368.659 681.879 342.85C695.365 316.976 716.309 299.397 744.659 290.138L743.424 283.774C764.724 277.018 782.888 271 797.909 265.706V262.118L700.95 288.247C696.829 289.682 687.232 288.726 672.15 285.385C649.785 280.309 629.715 268.347 611.938 249.491C594.135 230.691 583.012 209.771 578.538 186.768C572.876 157.691 577.615 132.003 592.732 109.571L588.565 107.562C600.521 87.2353 610.753 69.7323 619.265 55.0265H613.321C602.129 72.0147 592.938 86.2529 585.732 97.7412C575.971 112.2 568.721 123.353 563.974 131.185C552.259 145.379 532.829 155.144 505.591 160.444C454.159 170.45 411.224 156.494 376.876 118.547C367.856 107.788 362.497 99.7 360.841 94.347C354.668 64.3294 349.403 40.0735 345.074 21.5823H340.771C343.424 40.8 345.871 56.1441 348.109 67.6206L343.562 68.4941C348.826 102.035 342.221 132.553 323.691 160.006C305.156 187.456 279.247 204.45 245.979 210.918C213.903 217.156 183.956 210.091 156.141 189.747L155.959 188.829L153.615 191.191C131.424 175.25 113.009 162.147 98.3824 151.891H91.6412C106.221 163.335 120.897 174.759 135.665 186.191C168.288 211.876 187.024 237.156 191.847 261.953C198.312 295.232 191.694 326.647 172.035 356.238C152.356 385.815 126.159 403.797 93.4676 410.144C88.6441 411.091 83.4294 411.765 77.8706 412.221L75.7176 410.762C74.9206 413.415 74.2765 414.821 73.6765 414.941L0 424.971V431.118C26.4147 428.541 48.4206 426.144 66.0118 423.947L99.2235 420.344C124.244 422.982 145.471 433.635 162.9 452.209C180.312 470.806 191.497 492.826 196.435 518.247C203.382 553.935 198.879 582.435 182.941 603.774C169.929 617.618 159.709 628.059 152.285 635.141C138.3 648.279 124.465 661.362 110.829 674.415H123.353C138.271 660.073 150.876 647.668 161.171 637.191L162.271 637.929C180.591 622.426 199.771 612.753 219.735 608.865C252.991 602.403 283.974 609.05 312.647 628.938C341.329 648.806 358.9 675.379 365.365 708.653C367.368 718.941 366.776 738.538 363.626 767.397L362.341 778.421H366.559C369.729 758.144 372.132 741.253 373.768 727.741C386.7 684.409 417.691 657.965 466.682 648.435C496.953 642.553 522.924 645.379 544.632 656.829C560.779 665.585 577.1 681.624 593.541 704.806C598.753 712.588 603.921 720.332 609.038 728.035H615.365L611.947 721.953C596.609 694.791 588.309 677.865 587.012 671.224C580.185 636.109 585.7 603.794 603.494 574.276C621.303 544.771 647.45 526.635 681.935 519.929C700.682 516.282 722.106 518.091 746.118 525.341L747.962 520.256C768.55 527.788 785.897 534.085 800 539.15V534.406C793.176 531.671 785.753 528.8 777.753 525.788ZM699.812 296.956C697.4 297.424 701.512 297.574 712.135 297.388C667.974 328.576 651.241 371.738 661.932 426.753C666.532 450.4 676.876 471.309 692.976 489.5L662.4 477.565L662.053 475.747C630.197 463.732 611.044 441.076 604.565 407.794C593.035 348.471 624.788 311.541 699.812 296.956ZM261.976 472.506C255.753 440.459 238.694 418.947 210.8 408.032C256.112 398.618 282.6 413.882 290.359 453.806C294.832 476.815 288.344 496.597 270.832 513.182L272.091 514.812L256.253 530.165C263.726 510.485 265.624 491.262 261.976 472.506ZM259.647 295.868C258.238 288.591 255.874 281.212 252.521 273.712C272.291 288.056 283.688 303.126 286.747 318.876C290.394 337.606 286.247 354.909 274.215 370.747C262.232 386.585 246.874 394.774 228.126 395.271L227.571 397.25L208.162 399.156C227.538 389.082 242.026 374.647 251.541 355.838C261.056 337.044 263.768 317.035 259.647 295.868ZM529.309 234.024C533.421 255.206 543.338 273.059 559.047 287.588C574.747 302.109 593.291 311.056 614.659 314.465L562.153 330.326C549.694 333.991 537.129 329.965 524.529 318.321C511.876 306.641 504.329 294.456 501.844 281.697C498.906 266.6 501.421 252.026 509.359 237.909L509.176 236.982L527.818 206.982C526.803 214.721 527.303 223.738 529.309 234.024ZM537.144 400.147C539.747 413.515 545.024 424.712 553.082 433.821L516.532 420.168L518.359 415.118L517.45 415.294C505.265 410.765 498.006 402.435 495.656 390.344C490.95 366.141 509.15 350.021 550.297 342.021L553.95 341.306C538.265 357.574 532.679 377.194 537.144 400.147ZM343.691 422.703C341.1 409.394 335.109 399.585 325.718 393.247L356.753 388.141L358.365 391.606L359.438 392.344C367.429 391.379 372.35 395.791 374.247 405.488C375.182 410.321 371.509 417.291 363.262 426.45C356.197 432.221 349.468 437.926 343.026 443.568C344.753 436.335 344.988 429.376 343.691 422.703ZM295.662 451.856C291.068 428.238 278.715 411.488 258.559 401.588L261.282 401.065C280.659 397.297 298.109 395.168 313.709 394.629C327.721 401.959 335.95 411.971 338.421 424.671C340.65 436.162 335.621 449.079 323.341 463.394C312.735 473.647 302.235 484.147 291.776 494.994C297.035 480.153 298.362 465.771 295.662 451.856ZM294.929 317.279C294.341 314.265 292.679 308.918 289.924 301.294C307.506 314.185 320.674 323.874 329.485 330.326L331.976 338.326C333.968 348.618 332.129 358.412 326.391 367.685C320.671 376.965 312.935 382.526 303.262 384.409L298.559 384.376L298.526 389.097L261.5 392.529C290.165 375.047 301.274 349.912 294.929 317.279ZM488.212 390.853C489.865 399.326 493.515 406.785 499.162 413.215L498.244 413.391C489.565 410.682 481.103 407.653 472.906 404.203C461.926 399.426 455.982 394.615 455.047 389.782C453.394 381.285 456.335 375.403 463.838 372.05C463.724 371.435 463.547 370.571 463.306 369.306L462.774 366.603L495.094 358.412C488.147 367.903 485.859 378.735 488.212 390.853ZM418.594 386.512L450.615 400.971C444.05 402.897 439.276 407.285 436.232 414.129L418.594 386.512ZM434.362 423.935C428.444 422.565 423.668 422.221 420.021 422.938C414.597 423.979 410.332 426.403 407.309 430.153C408.832 412.271 409.582 396.709 409.538 383.556L412.641 380.103L434.003 422.082L434.362 423.935ZM446.506 389.535L448.297 393.909C434.274 389.712 423.906 386.418 417.144 383.918L413.359 379.012C422.579 377.856 433.406 375.45 445.874 371.762L450.765 372.697C446.859 378.479 445.45 384.082 446.506 389.535ZM419.376 375.965L432.544 356.485C436.112 362.071 439.1 365.868 441.359 367.903L419.376 375.965ZM445.585 360.506C442.453 357.344 440.647 354.571 440.176 352.129C439.353 347.909 441.882 341.459 447.726 332.779C451.624 326.976 455.847 321.162 460.332 315.25C460.647 323.362 464.326 330.944 471.347 338.056C478.382 345.2 485.826 349.541 493.688 351.15L453.721 363.638C451.435 364.741 448.694 363.682 445.585 360.506ZM437.709 339.429L435.535 337.971C431.891 341.85 428.25 344.097 424.626 344.806C414.326 346.812 408.374 343.585 406.721 335.094L400.732 299.5C415.438 310.471 430.341 314.512 445.465 311.571C446.068 311.45 447.826 310.771 450.75 309.579C452.571 309.232 454.071 308.932 455.3 308.7L437.709 339.429ZM411.585 374.647C412.456 372.603 411.824 364.574 409.724 350.532C415.382 353.832 421.253 354.882 427.282 353.703L429.841 352.279C424.482 363.371 420.379 371.397 417.547 376.324L408.285 381.9L407.018 380.244L408.821 379.897L405.029 379.703C395.265 371.571 387.794 365.471 382.638 361.459C391.953 360.912 399.241 356.353 404.471 347.774C408.047 359.647 410.409 368.615 411.585 374.647ZM401.221 379.5L377.085 381.353C379.897 376.45 381.135 371.474 380.8 366.544L401.221 379.5ZM403.412 380.947L406.665 383.168L381.115 406.979C380.079 398.368 376.662 392.126 370.882 388.224L374.156 385.709C382.279 385.391 391.994 383.8 403.412 380.947ZM408.824 384.626L401.885 426.447C397.588 417.262 390.306 413.641 379.974 415.644L408.824 384.626ZM405.6 443.174C406.612 433.876 411.053 428.468 418.921 426.932C426.791 425.409 433.312 428.229 438.479 435.344L441.006 433.938L455.906 462.135C447.344 456.888 437.626 455.321 426.718 457.441C417.668 459.203 409.979 463.197 403.635 469.474C403.944 461.265 404.585 452.5 405.6 443.174ZM440.521 421.779C440.947 414.171 445.347 409.559 453.844 407.9C457 407.9 459.897 408.271 462.553 409.012L462.929 406.135L486.624 416.594C480.076 418.506 473.971 423.435 468.318 431.462C462.659 439.482 459.865 446.921 459.941 453.794L440.521 421.779ZM486.597 338.885C476.744 333.597 470.85 325.776 468.844 315.491C467.432 308.197 469.782 299.279 475.888 288.682C481.256 280.718 486.571 272.444 491.803 263.915C491.747 270.203 492.153 275.462 492.979 279.706C498.744 309.359 514.35 328.312 539.829 336.535L517.659 343.662L517.297 341.85C506.653 345.179 496.421 344.194 486.597 338.885ZM467.526 289.347L464.435 288.082C461.629 296.144 454.779 301.265 443.885 303.374C416.659 308.676 400.265 297.085 394.738 268.659L391.591 247.615C410.694 268.356 436.006 275.726 467.476 269.609C469.268 269.25 474.244 267.335 482.365 263.885L467.526 289.347ZM391.697 296.568L393.326 295.312L400.918 334.353L398.206 334.876C398.865 344.791 394.365 350.682 384.688 352.565C380.453 353.391 376.209 352.665 372.006 350.321L370.526 352.488L337.129 326.015C342.429 327.494 348.415 327.618 355.068 326.321C373.238 322.797 385.435 312.856 391.697 296.568ZM340.324 337.647C353.459 346.991 363.271 353.909 369.806 358.291L372.997 365.194C373.585 368.232 372.882 371.815 370.859 375.974C368.841 380.147 366.626 382.438 364.212 382.909L316.118 387.562C324.126 383.497 330.732 376.412 336.009 366.3C341.265 356.165 342.682 346.597 340.324 337.647ZM371.418 424.865L373.418 425.426C375.476 423.144 378.012 421.688 381.038 421.109C389.506 419.456 396.135 422.879 400.971 431.382L395.056 478.647C394.515 469.368 389.282 461.112 379.426 453.924C369.55 446.741 360.432 444.259 352.085 446.523L350.25 446.871L371.418 424.865ZM402.885 475.276C410.191 467.556 417.744 462.929 425.624 461.397C441.371 458.338 455.238 465.097 467.232 481.606C468.918 483.774 477.171 498.826 492.044 526.685C475.374 515.474 457.694 511.721 438.938 515.365C421.388 518.771 406.956 526.912 395.644 539.773C398.938 511.526 401.365 490.044 402.885 475.276ZM466.606 463.797C464.847 454.756 466.856 445.729 472.665 436.723C478.465 427.773 485.888 422.391 494.95 420.629C496.888 420.9 498.168 420.932 498.747 420.821C525.303 431.332 545.085 439.468 558.109 445.097C539.832 448.003 524.768 455.374 512.926 467.053C501.079 478.788 494.735 493.85 493.909 512.218C475.476 478.729 466.376 462.621 466.606 463.797ZM495.168 242.524C486.532 253.006 474.962 259.679 460.426 262.5C444.097 265.679 428.332 262.932 413.121 254.226C397.932 245.585 388.759 233.076 385.591 216.747L379.221 184.047C405.165 217.332 439.935 229.7 483.497 221.229C495.003 218.985 506.091 214.665 516.768 208.185C502.856 230.365 495.656 241.829 495.168 242.524ZM383.238 248.309L388.168 273.688L386.374 274.038C389.147 297.997 378.106 312.385 353.288 317.212C341.185 319.568 331.985 317.315 325.594 310.356L321.753 314.862L300.815 299.188C310.247 299.221 317.682 298.732 323.129 297.674C353.385 291.785 373.45 275.309 383.238 248.309ZM363.397 264.862C351.215 278.229 336.991 286.5 320.644 289.679C306.132 292.497 293.582 291.126 283.121 285.653C281.803 285.282 271.547 277.862 252.397 263.371C264.241 266.103 276.797 266.144 290.135 263.553C333.088 255.194 359.832 229.6 370.347 186.741L377.229 222.156C380.168 237.262 375.544 251.518 363.397 264.862ZM278.441 518.318C287.912 508.924 296.585 503.453 304.45 501.926C321.4 498.632 337.324 502.126 352.182 512.462C367.053 522.75 376.197 536.653 379.606 554.218C379.965 556.029 380.129 559.291 380.115 564C380.094 568.744 380.224 572.003 380.582 573.835L380.762 574.709L383.338 568.553L378.579 611.879C374.476 584.403 361.871 563.935 340.741 550.453C319.591 536.982 295.109 532.947 267.253 538.356C262.418 539.291 258.891 540.621 256.709 542.321C263.897 534.012 271.126 526.024 278.441 518.318ZM382.45 564.029C382.968 560.153 382.806 556.109 381.976 551.844C378.344 533.135 368.718 518.362 353.126 507.547C337.515 496.794 320.012 493.244 300.653 497C324.738 472.259 338.888 457.888 343.153 453.882L350.244 451.579C359.909 449.712 368.912 451.579 377.229 457.179C385.547 462.8 390.629 470.409 392.512 480.115C393.462 484.959 392.574 498.959 389.847 522.088C387.118 545.191 384.674 559.212 382.45 564.029ZM394.888 545.576C404.774 531.762 419.062 523 437.832 519.35C466.876 513.697 488.832 523.259 503.703 548L504.618 547.818L533.518 599.679C506.926 572.8 476.415 562.697 441.929 569.409C419.512 573.759 401.824 586.026 388.774 606.135C391.665 579.182 393.756 559.003 394.888 545.576ZM530.753 575.709L499.853 523.276C497.865 506.738 501.844 491.682 511.776 478.124C521.685 464.562 534.838 456.191 551.185 453.012C564.471 450.421 587.568 456.009 620.379 469.703C593.247 475.609 571.609 487.844 555.444 506.388C539.268 524.921 531.038 548.024 530.753 575.709ZM576.45 442.447C559.438 432.582 549.138 418.253 545.491 399.494C539.138 366.806 550.676 345.453 580.085 335.288L580.671 333.344L623.353 320.291C599.388 345.685 590.706 375.341 597.291 409.209C601.524 430.997 611.662 449.162 627.691 463.6C596.397 451.471 579.344 444.441 576.45 442.447ZM571.553 136.303C567.256 152.835 566.832 170.2 570.365 188.359C575.662 215.591 588.176 238.735 607.9 257.829C627.644 276.915 650.926 289.503 677.879 295.559L643.735 304.1C619.541 308.803 597.124 304.065 576.444 289.865C555.794 275.65 543.126 256.447 538.415 232.262C536.885 224.371 536.841 213.85 538.382 200.673C539.909 187.526 543.229 179.497 548.303 176.609L547.224 175.885L571.553 136.303ZM429.871 163.382C455.4 171.921 481.147 173.659 507.188 168.597C523.538 165.418 538.153 160.065 551.138 152.494L539.629 170.779L538.726 170.956C529.774 192.794 510.8 206.512 481.744 212.162C458.121 216.756 435.115 213.065 412.694 201.088C390.265 189.144 376.762 171.335 372.165 147.741L366.7 119.612C383.274 140.271 404.324 154.85 429.871 163.382ZM247.559 219.068C276.003 213.544 300.603 199.535 321.329 176.941C342.044 154.382 353.097 128.818 354.456 100.297L364.7 152.994C368.447 175.474 362.318 197.079 346.241 217.794C330.141 238.5 310.632 251.088 287.638 255.562C263.424 260.262 242.65 255.191 225.341 240.365L223.685 241.629L189.726 217.1C210.121 221.985 229.421 222.603 247.559 219.068ZM185.565 348.394C200.371 319.509 204.862 290.188 199.106 260.55C196.862 249.056 192.779 237.6 186.785 226.218C200.497 235.438 213.985 245.056 227.256 255.074C240.224 266.985 248.312 281.115 251.494 297.453C256.074 321.029 251.826 342.771 238.721 362.594C225.624 382.426 207.594 394.565 184.588 399.038C178.55 400.215 174.224 400.726 171.709 400.594L171.306 403.476L121.6 409.379C149.465 397.688 170.785 377.359 185.565 348.394ZM202.632 516.062C192.626 464.656 165.241 431.991 120.465 418.079C151.903 411.962 176.462 409.053 194.129 409.394C208.129 410.462 221.212 417.806 233.294 431.509C245.359 445.15 252.859 459.535 255.812 474.665C260.632 499.488 256.421 521.318 243.115 540.221C240.315 545.194 224.685 561.726 196.241 589.871C205.344 565.476 207.453 540.894 202.632 516.062ZM367.529 710.138C367.785 705.05 365.982 697.212 362.044 686.694C352.015 657.856 333.062 635.338 305.082 619.126C277.118 602.868 248.026 597.7 217.759 603.594C206.265 605.824 194.271 610.368 181.771 617.179C195.774 601.906 209.791 586.915 223.906 572.235C242.515 554.85 259.356 544.626 274.5 541.685C299.885 536.741 322.165 541.35 341.268 555.532C360.347 569.753 372.279 589.232 377.115 614.062C377.924 618.303 374.744 650.315 367.529 710.138ZM577.203 674.082C545.321 645.729 508.485 635.609 466.726 643.718C423.768 652.079 393.35 676.521 375.485 717.038C380.8 670.185 384.988 635.124 387.991 611.944C401.532 591.091 419.191 578.541 440.994 574.291C483.324 566.062 517.515 582.044 543.562 622.179L546.1 620.738L577.203 674.082ZM681.429 512.518C646.941 519.209 620.129 537.118 601.006 566.276C581.856 595.429 574.721 627.435 579.615 662.294L536.862 587.703C534.435 562.421 540.582 539.088 555.285 517.718C569.976 496.326 589.7 483.232 614.509 478.415C624.809 476.409 632.603 476.124 637.929 477.618C645.776 479.241 659.603 484.215 679.447 492.632C699.282 501.012 711.803 507.223 716.991 511.256C704.176 509.947 692.335 510.394 681.429 512.518Z" fill="white"/>
</g>
<defs>
<clipPath id="clip0_4_2">
<rect width="800" height="800" fill="white"/>
</clipPath>
</defs>
</svg>
