<svg width="12" height="16" viewBox="0 0 12 16" fill="none" xmlns="http://www.w3.org/2000/svg">
<path d="M0.188813 0.67097C0.0845345 0.684595 0.0058774 0.780691 0.0131275 0.885606L0.340641 5.62498C0.533502 8.41582 2.93855 10.3844 5.71247 10.022V10.022C5.8789 10.0002 6.00444 9.84686 5.99287 9.67941L5.68101 5.16649C5.48383 2.31312 3.02489 0.300403 0.188813 0.67097V0.67097Z" fill="white"/>
<path d="M0.0627061 0.879128L0.39022 5.6185C0.581177 8.3818 2.96249 10.331 5.70902 9.9721C5.84807 9.95393 5.95296 9.82579 5.94329 9.68589L5.63143 5.17297C5.43615 2.34715 3.00095 0.353862 0.19226 0.720851C0.115363 0.730898 0.0573597 0.801761 0.0627061 0.879128Z" stroke="black" stroke-opacity="0.11" stroke-width="0.1"/>
<path d="M4.53791 15.4773C4.65949 15.5871 4.81531 15.5563 4.88593 15.4084L6.05574 12.9597C7.33044 10.2914 6.58482 6.52142 4.39035 4.53923V4.53923C4.25868 4.4203 4.08994 4.45368 4.01346 4.61377L1.76947 9.31107C1.09388 10.7253 1.48906 12.7234 2.65213 13.7739L4.53791 15.4773Z" fill="white"/>
<path d="M4.84883 15.3749L6.01863 12.9262C7.28144 10.2828 6.54278 6.54802 4.3688 4.58435C4.25762 4.48393 4.11514 4.51211 4.05056 4.64729L1.80658 9.34458C1.14289 10.7339 1.5311 12.6968 2.67368 13.7288L4.55946 15.4322C4.66055 15.5235 4.79011 15.4978 4.84883 15.3749Z" stroke="black" stroke-opacity="0.11" stroke-width="0.1"/>
<path d="M11.8112 0.67097C11.9155 0.684595 11.9941 0.780691 11.9869 0.885606L11.6594 5.62498C11.4665 8.41582 9.06145 10.3844 6.28753 10.022V10.022C6.1211 10.0002 5.99556 9.84686 6.00713 9.67941L6.31899 5.16649C6.51617 2.31312 8.97511 0.300403 11.8112 0.67097V0.67097Z" fill="white"/>
<path d="M11.9373 0.879128L11.6098 5.6185C11.4188 8.3818 9.03751 10.331 6.29098 9.9721C6.15193 9.95393 6.04704 9.82579 6.05671 9.68589L6.36857 5.17297C6.56385 2.34715 8.99905 0.353862 11.8077 0.720851C11.8846 0.730898 11.9426 0.801761 11.9373 0.879128Z" stroke="black" stroke-opacity="0.11" stroke-width="0.1"/>
<path d="M7.46209 15.4773C7.34051 15.5871 7.18469 15.5563 7.11407 15.4084L5.94426 12.9597C4.66956 10.2914 5.41518 6.52142 7.60965 4.53923V4.53923C7.74132 4.4203 7.91006 4.45368 7.98654 4.61377L10.2305 9.31107C10.9061 10.7253 10.5109 12.7234 9.34787 13.7739L7.46209 15.4773Z" fill="white"/>
<path d="M7.15117 15.3749L5.98137 12.9262C4.71856 10.2828 5.45722 6.54802 7.6312 4.58435C7.74238 4.48393 7.88486 4.51211 7.94944 4.64729L10.1934 9.34458C10.8571 10.7339 10.4689 12.6968 9.32632 13.7288L7.44054 15.4322C7.33945 15.5235 7.20989 15.4978 7.15117 15.3749Z" stroke="black" stroke-opacity="0.11" stroke-width="0.1"/>
</svg>
