<svg width="6" height="16" viewBox="0 0 6 16" fill="none" xmlns="http://www.w3.org/2000/svg">
<path d="M0.0944068 0.67097C0.0422674 0.684595 0.00150858 0.739301 0.00336951 0.793159L0.255291 8.08415C0.304793 9.51683 1.46928 10.3844 2.85623 10.022V10.022C2.93945 10.0002 3.0045 9.91292 3.00153 9.82696L2.75363 2.65222C2.70302 1.18744 1.51244 0.300403 0.0944068 0.67097V0.67097Z" fill="white"/>
<path d="M0.051745 0.780518L0.303666 8.07151C0.352215 9.47659 1.49427 10.3275 2.85451 9.97201C2.91101 9.95724 2.95518 9.89796 2.95316 9.8396L2.70525 2.66486C2.6556 1.22768 1.48745 0.357355 0.0961334 0.72094C0.070711 0.727583 0.0508376 0.754257 0.051745 0.780518Z" stroke="black" stroke-opacity="0.11" stroke-width="0.1"/>
<path d="M2.24574 15.4353C2.31935 15.5683 2.40765 15.5563 2.44297 15.4084L3.22885 12.1183C3.7552 9.91468 3.29241 6.52142 2.19517 4.53923V4.53923C2.12934 4.4203 2.05037 4.43107 2.01879 4.56329L0.778219 9.75701C0.49925 10.9249 0.744529 12.7234 1.32606 13.7739L2.24574 15.4353Z" fill="white"/>
<path d="M2.41875 15.3647L3.20463 12.0746C3.72457 9.8978 3.26742 6.54589 2.18356 4.58787C2.1311 4.49309 2.06817 4.50168 2.043 4.60704L0.802434 9.80075C0.529881 10.9418 0.769519 12.6989 1.33768 13.7253L2.25736 15.3867C2.3176 15.4955 2.38985 15.4857 2.41875 15.3647Z" stroke="black" stroke-opacity="0.11" stroke-width="0.1"/>
<path d="M5.90559 0.67097C5.95773 0.684595 5.99849 0.739301 5.99663 0.793159L5.74471 8.08415C5.69521 9.51683 4.53072 10.3844 3.14377 10.022V10.022C3.06055 10.0002 2.9955 9.91292 2.99847 9.82696L3.24637 2.65222C3.29698 1.18744 4.48756 0.300403 5.90559 0.67097V0.67097Z" fill="white"/>
<path d="M5.94825 0.780518L5.69633 8.07151C5.64778 9.47659 4.50573 10.3275 3.14549 9.97201C3.08899 9.95724 3.04482 9.89796 3.04684 9.8396L3.29475 2.66486C3.3444 1.22768 4.51255 0.357355 5.90387 0.72094C5.92929 0.727583 5.94916 0.754257 5.94825 0.780518Z" stroke="black" stroke-opacity="0.11" stroke-width="0.1"/>
<path d="M3.75426 15.4353C3.68065 15.5683 3.59235 15.5563 3.55703 15.4084L2.77115 12.1183C2.2448 9.91468 2.70759 6.52142 3.80483 4.53923V4.53923C3.87066 4.4203 3.94963 4.43107 3.98121 4.56329L5.22178 9.75701C5.50075 10.9249 5.25547 12.7234 4.67394 13.7739L3.75426 15.4353Z" fill="white"/>
<path d="M3.58125 15.3647L2.79537 12.0746C2.27543 9.8978 2.73258 6.54589 3.81644 4.58787C3.8689 4.49309 3.93183 4.50168 3.957 4.60704L5.19757 9.80075C5.47012 10.9418 5.23048 12.6989 4.66232 13.7253L3.74264 15.3867C3.6824 15.4955 3.61015 15.4857 3.58125 15.3647Z" stroke="black" stroke-opacity="0.11" stroke-width="0.1"/>
</svg>
