<svg width="6" height="16" viewBox="0 0 6 16" fill="none" xmlns="http://www.w3.org/2000/svg">
<path d="M0.0944068 0.67097C0.0422674 0.684595 0.00150858 0.739301 0.00336951 0.793159L0.255291 8.08415C0.304793 9.51683 1.46928 10.3844 2.85623 10.022V10.022C2.93945 10.0002 3.0045 9.91292 3.00153 9.82696L2.75363 2.65222C2.70302 1.18744 1.51244 0.300403 0.0944068 0.67097V0.67097Z" fill="white"/>
<path d="M2.24574 15.4353C2.31935 15.5683 2.40765 15.5563 2.44297 15.4084L3.22885 12.1183C3.7552 9.91468 3.29241 6.52142 2.19517 4.53923V4.53923C2.12934 4.4203 2.05037 4.43107 2.01879 4.56329L0.778219 9.75701C0.49925 10.9249 0.744529 12.7234 1.32606 13.7739L2.24574 15.4353Z" fill="white"/>
<path d="M5.90559 0.67097C5.95773 0.684595 5.99849 0.739301 5.99663 0.793159L5.74471 8.08415C5.69521 9.51683 4.53072 10.3844 3.14377 10.022V10.022C3.06055 10.0002 2.9955 9.91292 2.99847 9.82696L3.24637 2.65222C3.29698 1.18744 4.48756 0.300403 5.90559 0.67097V0.67097Z" fill="white"/>
<path d="M3.75426 15.4353C3.68065 15.5683 3.59235 15.5563 3.55703 15.4084L2.77115 12.1183C2.2448 9.91468 2.70759 6.52142 3.80483 4.53923V4.53923C3.87066 4.4203 3.94963 4.43107 3.98121 4.56329L5.22178 9.75701C5.50075 10.9249 5.25547 12.7234 4.67394 13.7739L3.75426 15.4353Z" fill="white"/>
</svg>
